<svg viewBox="0 0 360 170" xmlns="http://www.w3.org/2000/svg" role="img" aria-label="A reporter asking the President about the ceasefire">
        <defs><linearGradient id="sky-peace" x1="0" y1="0" x2="0" y2="1"><stop offset="0" stop-color="#bfdbfe"/><stop offset="1" stop-color="#eff6ff"/></linearGradient></defs>
        <rect x="0" y="0" width="360" height="170" fill="url(#sky-peace)"/>
        <rect x="0" y="132" width="360" height="38" fill="#e2e8f0"/>
        <rect x="0" y="132" width="360" height="5" fill="#cbd5e1"/>
        <g class="cloud1" fill="#ffffff" opacity="0.9"><ellipse cx="60" cy="34" rx="16" ry="9"/><ellipse cx="74" cy="36" rx="11" ry="7"/></g>
        <!-- 和平鴿飛過天空 -->
        <g class="cloud2"><text x="0" y="30" font-size="22">🕊️</text></g>
        <!-- 記者（女，左）拿著麥克風 -->
        <g transform="translate(86,55)"><g class="bob-a">
          <g class="talkA"><path d="M34,-3 L30,5 L42,-2 Z" fill="#fff" stroke="#db2777" stroke-width="1.5"/><rect x="22" y="-25" width="66" height="22" rx="11" fill="#fff" stroke="#db2777" stroke-width="1.5"/><text x="55" y="-10" font-size="10.5" font-weight="700" fill="#db2777" text-anchor="middle">Ceasefire?</text></g>
          <ellipse cx="20" cy="80" rx="15" ry="3" fill="#000" opacity="0.10"/>
          <path d="M4,16 Q1,44 7,58 L33,58 Q39,44 36,16 Z" fill="#6b4423"/>
          <rect x="13" y="58" width="6" height="14" rx="3" fill="#ffe0bd"/><rect x="21" y="58" width="6" height="14" rx="3" fill="#ffe0bd"/>
          <rect x="10" y="72" width="11" height="6" rx="3" fill="#be185d"/><rect x="19" y="72" width="11" height="6" rx="3" fill="#be185d"/>
          <path d="M9,30 Q5,48 2,60 L38,60 Q35,48 31,30 Z" fill="#db2777"/><rect x="9" y="30" width="22" height="7" rx="3" fill="#be185d" opacity="0.45"/>
          <rect x="2" y="31" width="8" height="10" rx="4" fill="#db2777"/><rect x="1.5" y="38" width="6" height="11" rx="3" fill="#ffe0bd" transform="rotate(8 4 43)"/><circle cx="4" cy="50" r="3.3" fill="#ffe0bd"/>
          <rect x="30" y="31" width="8" height="10" rx="4" fill="#db2777"/><rect x="32.5" y="38" width="6" height="11" rx="3" fill="#ffe0bd" transform="rotate(-8 36 43)"/><circle cx="36" cy="50" r="3.3" fill="#ffe0bd"/>
          <rect x="16.5" y="24" width="7" height="6" fill="#ffe0bd"/>
          <circle cx="20" cy="13" r="13" fill="#6b4423"/><circle cx="20" cy="15" r="12" fill="#ffe0bd"/>
          <ellipse cx="7.7" cy="15" rx="2" ry="3" fill="#ffe0bd"/><ellipse cx="32.3" cy="15" rx="2" ry="3" fill="#ffe0bd"/>
          <path d="M7,12 Q20,1 33,12 Q20,7 7,12 Z" fill="#6b4423"/>
          <circle cx="11" cy="19" r="2.5" fill="#fca5a5" opacity="0.6"/><circle cx="29" cy="19" r="2.5" fill="#fca5a5" opacity="0.6"/>
          <ellipse cx="14" cy="15" rx="2.2" ry="2.9" fill="#fff"/><circle cx="14.4" cy="15.4" r="1.5" fill="#3b2415"/>
          <ellipse cx="26" cy="15" rx="2.2" ry="2.9" fill="#fff"/><circle cx="25.6" cy="15.4" r="1.5" fill="#3b2415"/>
          <path d="M15,21 Q20,25 25,21" stroke="#b5503a" stroke-width="1.6" fill="none" stroke-linecap="round"/>
          <!-- 麥克風 -->
          <rect x="33.5" y="40" width="2.2" height="12" rx="1.1" fill="#334155"/><circle cx="34.6" cy="39" r="3.8" fill="#64748b"/><circle cx="34.6" cy="39" r="2" fill="#94a3b8"/>
        </g></g>
        <!-- 總統（男，右，深藍西裝＋紅領帶）站在講台後 -->
        <g transform="translate(214,55)"><g class="bob-b">
          <g class="talkB"><path d="M6,-3 L10,5 L-2,-2 Z" fill="#fff" stroke="#2563eb" stroke-width="1.5"/><rect x="-30" y="-25" width="48" height="22" rx="11" fill="#fff" stroke="#2563eb" stroke-width="1.5"/><text x="-6" y="-10" font-size="11" font-weight="700" fill="#2563eb" text-anchor="middle">Peace!</text></g>
          <ellipse cx="20" cy="80" rx="15" ry="3" fill="#000" opacity="0.10"/>
          <rect x="13" y="60" width="6" height="14" rx="3" fill="#1f2937"/><rect x="21" y="60" width="6" height="14" rx="3" fill="#1f2937"/>
          <rect x="10" y="73" width="11" height="6" rx="3" fill="#111827"/><rect x="19" y="73" width="11" height="6" rx="3" fill="#111827"/>
          <rect x="9" y="50" width="22" height="12" rx="4" fill="#1e3a8a"/>
          <rect x="7" y="28" width="26" height="24" rx="9" fill="#1e3a8a"/>
          <path d="M16,28 L20,33 L24,28 Z" fill="#fff"/><path d="M20,30 L17.5,42 L20,46 L22.5,42 Z" fill="#dc2626"/>
          <rect x="2" y="29" width="8" height="11" rx="4" fill="#1e3a8a"/><rect x="1.5" y="37" width="6" height="11" rx="3" fill="#ffe0bd" transform="rotate(8 4 42)"/><circle cx="4" cy="49" r="3.3" fill="#ffe0bd"/>
          <rect x="30" y="29" width="8" height="11" rx="4" fill="#1e3a8a"/><rect x="32.5" y="37" width="6" height="11" rx="3" fill="#ffe0bd" transform="rotate(-8 36 42)"/><circle cx="36" cy="49" r="3.3" fill="#ffe0bd"/>
          <rect x="16.5" y="24" width="7" height="6" fill="#ffe0bd"/>
          <circle cx="20" cy="13" r="13" fill="#e8c878"/><circle cx="20" cy="15" r="12" fill="#ffe0bd"/>
          <ellipse cx="7.7" cy="15" rx="2" ry="3" fill="#ffe0bd"/><ellipse cx="32.3" cy="15" rx="2" ry="3" fill="#ffe0bd"/>
          <path d="M7,11 Q14,4 22,7 Q28,4 33,11 Q26,8 20,8 Q13,8 7,11 Z" fill="#e8c878"/>
          <circle cx="11" cy="19" r="2.5" fill="#fca5a5" opacity="0.5"/><circle cx="29" cy="19" r="2.5" fill="#fca5a5" opacity="0.5"/>
          <ellipse cx="14" cy="15" rx="2.2" ry="2.8" fill="#fff"/><circle cx="14.4" cy="15.4" r="1.4" fill="#3b2415"/>
          <ellipse cx="26" cy="15" rx="2.2" ry="2.8" fill="#fff"/><circle cx="25.6" cy="15.4" r="1.4" fill="#3b2415"/>
          <path d="M15,21 Q20,25 25,21" stroke="#b5503a" stroke-width="1.6" fill="none" stroke-linecap="round"/>
          <!-- 講台＋麥克風 -->
          <path d="M3,58 L37,58 L34,84 L6,84 Z" fill="#1d4ed8"/><rect x="1" y="55" width="38" height="5.5" rx="2" fill="#2563eb"/>
          <rect x="18.6" y="45" width="2" height="13" fill="#334155"/><circle cx="19.6" cy="44" r="3.2" fill="#64748b"/>
        </g></g>
      </svg>
