<svg viewBox="0 0 360 170" xmlns="http://www.w3.org/2000/svg" role="img"
           aria-label="Tom and Anna at the park when it started to rain">
        <defs>
          <linearGradient id="sky3" x1="0" y1="0" x2="0" y2="1">
            <stop offset="0" stop-color="#94a3b8"/>
            <stop offset="1" stop-color="#cbd5e1"/>
          </linearGradient>
        </defs>

        <!-- 陰天 + 草地 -->
        <rect x="0" y="0" width="360" height="170" fill="url(#sky3)"/>
        <rect x="0" y="128" width="360" height="42" fill="#86efac"/>
        <rect x="0" y="128" width="360" height="6" fill="#4ade80"/>

        <!-- 水窪 -->
        <ellipse cx="70" cy="150" rx="26" ry="5" fill="#7dd3fc" opacity="0.6"/>
        <ellipse cx="292" cy="152" rx="30" ry="5" fill="#7dd3fc" opacity="0.6"/>

        <!-- 大樹（右側） -->
        <g class="tree">
          <rect x="312" y="88" width="11" height="42" rx="4" fill="#92400e"/>
          <circle cx="317" cy="74" r="25" fill="#15803d"/>
          <circle cx="298" cy="86" r="16" fill="#166534"/>
          <circle cx="336" cy="86" r="15" fill="#166534"/>
        </g>

        <!-- 烏雲 -->
        <g fill="#64748b" opacity="0.9">
          <ellipse cx="72" cy="28" rx="26" ry="14"/>
          <ellipse cx="98" cy="31" rx="20" ry="12"/>
          <ellipse cx="50" cy="33" rx="16" ry="10"/>
        </g>
        <g fill="#475569" opacity="0.85">
          <ellipse cx="250" cy="24" rx="28" ry="14"/>
          <ellipse cx="278" cy="28" rx="20" ry="12"/>
          <ellipse cx="224" cy="28" rx="16" ry="10"/>
        </g>

        <!-- 雨 -->
        <g class="rainfall" stroke="#bfdbfe" stroke-width="2" stroke-linecap="round" opacity="0.8">
          <line x1="60" y1="44" x2="57" y2="51"/><line x1="60" y1="60" x2="57" y2="67"/><line x1="60" y1="76" x2="57" y2="83"/><line x1="60" y1="92" x2="57" y2="99"/><line x1="60" y1="108" x2="57" y2="115"/>
          <line x1="108" y1="44" x2="105" y2="51"/><line x1="108" y1="60" x2="105" y2="67"/><line x1="108" y1="76" x2="105" y2="83"/><line x1="108" y1="92" x2="105" y2="99"/><line x1="108" y1="108" x2="105" y2="115"/>
          <line x1="156" y1="44" x2="153" y2="51"/><line x1="156" y1="60" x2="153" y2="67"/><line x1="156" y1="76" x2="153" y2="83"/><line x1="156" y1="92" x2="153" y2="99"/><line x1="156" y1="108" x2="153" y2="115"/>
          <line x1="204" y1="44" x2="201" y2="51"/><line x1="204" y1="60" x2="201" y2="67"/><line x1="204" y1="76" x2="201" y2="83"/><line x1="204" y1="92" x2="201" y2="99"/><line x1="204" y1="108" x2="201" y2="115"/>
          <line x1="252" y1="44" x2="249" y2="51"/><line x1="252" y1="60" x2="249" y2="67"/><line x1="252" y1="76" x2="249" y2="83"/><line x1="252" y1="92" x2="249" y2="99"/><line x1="252" y1="108" x2="249" y2="115"/>
          <line x1="300" y1="44" x2="297" y2="51"/><line x1="300" y1="60" x2="297" y2="67"/><line x1="300" y1="76" x2="297" y2="83"/><line x1="300" y1="92" x2="297" y2="99"/><line x1="300" y1="108" x2="297" y2="115"/>
        </g>

        <!-- Tom（左） -->
        <g transform="translate(112,50)">
          <g class="bob-a">
            <ellipse cx="20" cy="80" rx="15" ry="3" fill="#000" opacity="0.10"/>
            <rect x="13" y="60" width="6" height="14" rx="3" fill="#ffe0bd"/>
            <rect x="21" y="60" width="6" height="14" rx="3" fill="#ffe0bd"/>
            <rect x="10" y="73" width="11" height="6" rx="3" fill="#ef4444"/>
            <rect x="19" y="73" width="11" height="6" rx="3" fill="#ef4444"/>
            <rect x="9" y="50" width="22" height="12" rx="4" fill="#1e3a8a"/>
            <rect x="19.3" y="52" width="1.4" height="9" fill="#172554"/>
            <rect x="7" y="28" width="26" height="24" rx="9" fill="#2563eb"/>
            <rect x="7" y="39" width="26" height="3.5" fill="#fff" opacity="0.7"/>
            <rect x="2" y="29" width="8" height="11" rx="4" fill="#2563eb"/>
            <rect x="1.5" y="37" width="6" height="11" rx="3" fill="#ffe0bd" transform="rotate(8 4 42)"/>
            <circle cx="4" cy="49" r="3.3" fill="#ffe0bd"/>
            <rect x="30" y="29" width="8" height="11" rx="4" fill="#2563eb"/>
            <rect x="32.5" y="37" width="6" height="11" rx="3" fill="#ffe0bd" transform="rotate(-8 36 42)"/>
            <circle cx="36" cy="49" r="3.3" fill="#ffe0bd"/>
            <rect x="16.5" y="24" width="7" height="6" fill="#ffe0bd"/>
            <circle cx="20" cy="13" r="13" fill="#5b3a1f"/>
            <circle cx="20" cy="15" r="12" fill="#ffe0bd"/>
            <ellipse cx="7.7" cy="15" rx="2" ry="3" fill="#ffe0bd"/>
            <ellipse cx="32.3" cy="15" rx="2" ry="3" fill="#ffe0bd"/>
            <path d="M8,12 Q20,2 32,12 Q20,8 8,12 Z" fill="#5b3a1f"/>
            <circle cx="11" cy="19" r="2.5" fill="#fca5a5" opacity="0.55"/>
            <circle cx="29" cy="19" r="2.5" fill="#fca5a5" opacity="0.55"/>
            <path d="M11.5,11 q2,-1.2 4,0" stroke="#5b3a1f" stroke-width="1.2" fill="none" stroke-linecap="round"/>
            <path d="M24.5,11 q2,-1.2 4,0" stroke="#5b3a1f" stroke-width="1.2" fill="none" stroke-linecap="round"/>
            <ellipse cx="14" cy="15" rx="2.2" ry="2.8" fill="#fff"/>
            <circle cx="14.4" cy="15.4" r="1.4" fill="#3b2415"/>
            <ellipse cx="26" cy="15" rx="2.2" ry="2.8" fill="#fff"/>
            <circle cx="25.6" cy="15.4" r="1.4" fill="#3b2415"/>
            <path d="M20,15.5 q1.5,2.2 -0.6,3.2" stroke="#e0a878" stroke-width="1.2" fill="none" stroke-linecap="round"/>
            <path d="M15,22 Q20,25 25,22" stroke="#b5503a" stroke-width="1.6" fill="none" stroke-linecap="round"/>
          </g>
        </g>

        <!-- Anna（右） -->
        <g transform="translate(196,50)">
          <g class="bob-b">
            <ellipse cx="20" cy="80" rx="15" ry="3" fill="#000" opacity="0.10"/>
            <path d="M4,16 Q1,44 7,58 L33,58 Q39,44 36,16 Z" fill="#6b4423"/>
            <rect x="13" y="58" width="6" height="14" rx="3" fill="#ffe0bd"/>
            <rect x="21" y="58" width="6" height="14" rx="3" fill="#ffe0bd"/>
            <rect x="10" y="72" width="11" height="6" rx="3" fill="#be185d"/>
            <rect x="19" y="72" width="11" height="6" rx="3" fill="#be185d"/>
            <path d="M9,30 Q5,48 2,60 L38,60 Q35,48 31,30 Z" fill="#db2777"/>
            <rect x="9" y="30" width="22" height="7" rx="3" fill="#be185d" opacity="0.45"/>
            <rect x="2" y="31" width="8" height="10" rx="4" fill="#db2777"/>
            <rect x="1.5" y="38" width="6" height="11" rx="3" fill="#ffe0bd" transform="rotate(8 4 43)"/>
            <circle cx="4" cy="50" r="3.3" fill="#ffe0bd"/>
            <rect x="30" y="31" width="8" height="10" rx="4" fill="#db2777"/>
            <rect x="32.5" y="38" width="6" height="11" rx="3" fill="#ffe0bd" transform="rotate(-8 36 43)"/>
            <circle cx="36" cy="50" r="3.3" fill="#ffe0bd"/>
            <rect x="16.5" y="24" width="7" height="6" fill="#ffe0bd"/>
            <ellipse cx="4" cy="27" rx="5" ry="10" fill="#6b4423"/>
            <ellipse cx="36" cy="27" rx="5" ry="10" fill="#6b4423"/>
            <circle cx="5" cy="18" r="2" fill="#f472b6"/>
            <circle cx="35" cy="18" r="2" fill="#f472b6"/>
            <circle cx="20" cy="13" r="13" fill="#6b4423"/>
            <circle cx="20" cy="15" r="12" fill="#ffe0bd"/>
            <ellipse cx="7.7" cy="15" rx="2" ry="3" fill="#ffe0bd"/>
            <ellipse cx="32.3" cy="15" rx="2" ry="3" fill="#ffe0bd"/>
            <path d="M7,12 Q20,1 33,12 Q20,7 7,12 Z" fill="#6b4423"/>
            <path d="M20,5 L13,2 L13,8 Z" fill="#f472b6"/>
            <path d="M20,5 L27,2 L27,8 Z" fill="#f472b6"/>
            <circle cx="20" cy="5" r="2.2" fill="#ec4899"/>
            <circle cx="11" cy="19" r="2.5" fill="#fca5a5" opacity="0.6"/>
            <circle cx="29" cy="19" r="2.5" fill="#fca5a5" opacity="0.6"/>
            <ellipse cx="14" cy="15" rx="2.2" ry="2.9" fill="#fff"/>
            <circle cx="14.4" cy="15.4" r="1.5" fill="#3b2415"/>
            <ellipse cx="26" cy="15" rx="2.2" ry="2.9" fill="#fff"/>
            <circle cx="25.6" cy="15.4" r="1.5" fill="#3b2415"/>
            <path d="M11.5,12.5 q2,-1 4,-0.3" stroke="#3b2415" stroke-width="1" fill="none" stroke-linecap="round"/>
            <path d="M24.5,12.2 q2,-0.7 4,0.3" stroke="#3b2415" stroke-width="1" fill="none" stroke-linecap="round"/>
            <path d="M20,15.5 q1.5,2.2 -0.6,3.2" stroke="#e0a878" stroke-width="1.2" fill="none" stroke-linecap="round"/>
            <path d="M15,22 Q20,25 25,22" stroke="#b5503a" stroke-width="1.6" fill="none" stroke-linecap="round"/>
          </g>
        </g>

        <!-- 雨傘（蓋在兩人頭上） -->
        <g>
          <path d="M116,40 Q174,2 232,40 Z" fill="#ef4444"/>
          <path d="M116,40 Q145,28 174,40 Q203,28 232,40" fill="none" stroke="#b91c1c" stroke-width="1.3"/>
          <line x1="174" y1="6" x2="118" y2="40" stroke="#b91c1c" stroke-width="1"/>
          <line x1="174" y1="6" x2="230" y2="40" stroke="#b91c1c" stroke-width="1"/>
          <line x1="174" y1="6" x2="174" y2="40" stroke="#b91c1c" stroke-width="1"/>
          <circle cx="174" cy="5" r="2.2" fill="#b91c1c"/>
          <path d="M174,40 L174,74 Q174,82 166,82 Q160,82 160,77" fill="none" stroke="#7c3a12" stroke-width="3" stroke-linecap="round"/>
        </g>
      </svg>
